<?xml version="1.0" encoding="UTF-8"?><svg id="a" xmlns="http://www.w3.org/2000/svg" viewBox="0 0 469.3 442.6"><path d="M340.54,80.02c-23.17-9.8-48.31-15.86-73.42-18.28-59.09-5.69-138.29,11.17-182.55,52.84-.96.9-2.43,1.88-2.18,3.27l44.66,129.52,27.23-12.8c-23.19-16.07-4.16-46.16.85-67.06l-4.02-9.78c-3.88,2.52-8.74,4.84-12.56,7.4-5.59,3.76-12.7,10.94-18.24,13.75-6.63,3.37-5.23-5.66-4.82-9.96,1.16-11.95,11.18-35.75,19.06-44.93,20.77-24.18,81.61-54.65,113.55-49.54,38.57,6.16,53.69,49.6,61.99,82.57,8.22,32.68,12.48,67.98-12.35,94.69,25.16,16.74,32.17,48.77,54.21,68.56-9.67,6.27-18.77,16.24-19.41,28.28l6.86-11.13c4.61-5.61,11.01-9.8,16-14.85,5.52-5.59,12.57-16.74,18.65-20.78,3.52-2.34,9.85-2.37,10.93-7.36.15-.67.52-5.15.46-5.62s-3.09-3.2-3.87-5.01c-1-2.31-1.18-4.1-1.1-6.62l-53.54-10.17c-8.07-3.37-7.38-8.77-6.14-16.19,5.71-34.06,16.46-68.55,22.4-102.73.82-5.14,5.64-8.42,10.68-8.04,28.01,7.18,59.02,9.42,86.77,16.67,5.62,1.47,9.18,4.2,9.26,10.41l-16.29,75.35c7.59,1.94,11.68,7.31,8.88,15.19-.58,1.62-3.51,5.11-3.54,5.44-.06.82,2.36,3.95,2.08,7.36-.47,5.64-5.19,9-6.11,12.2-.52,1.8.06,4.46-.26,6.6-.88,5.78-13.02,19.24-17.96,22.6-.91.62-1.96.99-3.01,1.3,1.86,11.9,2.17,24.19,1.7,36.25-.58,15.04-2.78,33.34-7.04,47.81-2.4,8.13-3.4,10.66-12.28,12.86-20.57,5.1-48.17,5.34-69.57,6.42-48.24,2.44-97.23,4.03-145.65,2.29-4.15-.15-8.35.14-12.5.05l-27.52-75.45,22,74.85c-3.9-.11-7.83.15-11.73.03-18.59-.58-39.15-2.08-57.68-4.03-9.84-1.04-27.84-2.66-36.59-6.26-11.66-4.8-19.9-36.7-19.56-48.26.73-24.48,19.37-33.37,33.3-49.46,8.84-10.21,16.25-22.84,24.86-33.42,4.69-5.76,10.1-10.97,14.8-16.55l-45.95-136.31c-1.44-4.36-7.05-.31-8.98-4.73-3.05-12.23-11.05-26.64-13.33-38.66-1.19-6.27,3.14-6.06,3.6-8.98.31-1.98-3.51-8.56-3.74-10.9-.57-5.9,10.3-10.56,15.03-11,10.29-.95,7.4,4.55,10.98,10.71.3.51-.05.86.98.72,31.35-17.36,66.68-29.62,102.39-34.21,59.21-7.62,132.68.19,169.33,53.05ZM301.69,57.75c-54.08-27.45-119.32-27.31-176.41-9.3-14.76,4.66-33.45,12.04-46.37,20.48-1.42.93-5.65,3.38-5.73,5.07l9.4,27.74c18.39-15.9,40.98-27.42,63.84-35.58,43.87-15.66,92.32-20.4,138.26-11.68,5.11.97,10.16,2.79,15.29,3.57.6.09,1.86.77,1.73-.3ZM258.27,91.46c-6.1,1.04-11.2,3.95-16.01,7.7-29.82,23.26-58.53,74.16-56.01,112.59,1.68,25.66,24.35,48.79,48.35,55.65,1.55.07,1.27-.09.1-.68-19.27-9.65-41.54-32.5-43.3-54.98-3.03-38.61,24.28-85.6,53.15-109.73,4.44-3.71,9.59-6.61,13.72-10.56ZM283.9,214.21c1.49-5.28-1.04-12.29,1.69-17.45,2.14-4.05,6.11-2.26,8.9-4.24,3.57-2.54,1.67-15.06,2.08-19.64.71-7.91,4.83-11.49,1.05-19.92-1.09-2.42-3.46-4.58-4.1-6.75-3.38-11.37-3.87-18.41-13.83-26.74-4.31-3.61-17.2-10.67-22.7-9.61-3.55.68-15.59,9.92-18.72,12.73-9.76,8.77-23.71,26.78-25.06,40.07-.34,3.32.53,7.03-.66,10.2-1.25,3.33-5.55,3-6.23,7.48-1.28,8.38,8.03,11.84,14.69,13.24,5.02,1.06,14.46.79,18.39,3.89,6.25,4.93-.79,17.79,9.76,18.27,1.78-.81,1.37-5.59,4.54-4.87-.23,3.56-.13,8.44,4.77,6.76,1.91-.66,1.65-7.96,4.37-6.19,1.36.88-1.14,7.99,4.86,6.86,3.13-.59,1.01-6.09,4-6.85,1.36.07.29,6.5,3.84,6.17,4.34-.39,2.54-4.44,2.73-7.33l1.76.34,1.17,3.58h2.69ZM440.53,166.88l-87.99-17.15-23.43,107.98,58.85,11.43c-3.1-6.68-.01-12.17,6.86-13.72-1.97-2.97-1.17-8.45,1.41-10.86,1.69-1.58,15.29-5.39,17.89-5.59,2.9-.22,6.91,1.1,9.86,1.36l16.54-73.46ZM243.98,229.15c-7.56-.7-15.76-6.11-18.12-13.58-.88-2.78-1.05-10.16-2.7-11.59-.67-.58-10.16-3.73-10.6-3.39,3.14,8.75-.24,20.6,5.99,28,4,4.75,30.48,18.85,36.84,20.3,4.54,1.03,19.05,1.66,22.33-1.71,1.88-1.93,1.85-11.09,2.33-14.24.58-3.77,2.11-7.35,2.21-11.21-3.97,1.14-3.08,5.39-5.43,7.99-1.31.24-.8-.58-.82-1.43-.03-1.34.38-2.82-.05-4.26-4.99-1.03-3.97,5.08-7.13,7.4-1.77-1.51.39-3.8-.36-5.91-.28-.8-1.76-1.31-2.51-1.27-3.43.17-3.27,6.82-5.69,7.21-1.12.21-.87-.4-1.13-1.16-.88-2.57,0-5.93-3.46-6.32-4.08-.47-2.13,5.87-5.7,6.89-1.18-.23-1.1-6.22-1.96-7.62-1.59-2.58-7-1.26-5.65,3.22.32,1.05,1.85,1.36,1.6,2.69ZM414.82,246.29c-2.83.23-12.22,1.07-13.77,3.12-2.42,3.2,5.4,3.65,7.2,3.73,5.97.27,7.05-.57,6.57-6.85ZM420.37,247.54c-1.9.57-2.01,4.11-1.27,5.61.93,1.88,10.88,3.15,13.07,5.07,1.59-1.75,5.23-3.58,4.1-6.23-.8-1.56-13.83-5.07-15.9-4.45ZM232.56,285.71l-23.81-11.89-27.61-18.38c12.47,16.34,30.83,27.75,51.42,30.27ZM409.68,261.72c-5.28-.98-11.01-.54-16,1.42,1.84,2.42,12.29,6.35,14.15,4.15l1.85-5.57ZM433.52,268.15c-.62-.65-15.53-6.28-16.77-6.4-3.83-.38-4.84,3.36-4.22,6.54.44,2.27,8.54,4.08,10.86,5.14,1.63.75,4.72,3.5,6.11,3.62,1.98.17,6.04-6.82,4.03-8.9ZM255.99,282.28c11.49-1.4,20.78-8.25,27.99-16.85.54-.64,1.39-.93,1.14-2l-29.13,18.85ZM147.99,276c.98-5.58-3.77-10.14-9.13-10.28.23,6.76,3.28,8.3,9.13,10.28ZM111.5,285.07c.47.29,1.24.08,1.78-.05,1.9-.44,18.71-10.37,20.63-11.97,4.36-3.65.39-7.46-3.06-6.52-1.82.49-12.57,7.64-14.8,9.23-3.81,2.71-7.76,4.05-4.55,9.3ZM406.25,277.15c-5.38-1.34-10.71-.54-16.2-.49-4.26,4.33,6.87,6.32,9.63,6.25,4.21-.11,5.65-1.85,6.57-5.76ZM410.62,277.76c-6.2,8,.52,8.18,6.29,11.28,2.44,1.31,4.55,3.73,7.31,4.11,2.43-.23,4.9-6.48,2.62-8.33l-16.22-7.07ZM141.57,282.4l-23.49,10.26c-2.76,1.73-2.73,5.02.02,6.69l26.66-10.29c2.51-1.56,1-7.24-3.2-6.66ZM149.14,282.29c.03,2.88,1.2,5.36.09,8.23l4.1,2c3.99-3.63,1.15-10.53-4.19-10.23ZM160,295.42c6.2,1.12,7.74-10.41,2-11.43-1.79-.32-.41,2.63-.5,3.63-.25,2.64-1.5,5.12-1.5,7.8ZM98.86,322.28c1.52-.99,2.21-3.24,2.86-4.84,3.55-8.72,4.48-18.94,8.31-27.69l-4.05-4.6c-2.56,9.57-5.84,20.89-6.98,30.72-.25,2.14-.16,4.27-.15,6.41ZM306.26,287.43l-1.14.84c-.36,24.73-2.33,49.6-.56,74.28.28,3.88.94,7.87,1.42,11.72l2.6-32.26v-27.48s-2.32-27.11-2.32-27.11ZM402.24,291.45l-7.73-1.59c-2.4.41.85,6.91,3.54,7.16,2.21.21,4.5-3.5,4.18-5.57ZM419.39,299.43c-3.29.21-6.88-4.8-9.87-3.91-1.51.45-6.95,7.98-6.63,9.21,5.54,7.45,12.02-1.37,16.51-5.3ZM104.01,332.56c1.11.22,1.38-.51,1.83-1.31,1.49-2.67,2.33-7.15,3.61-10.11,2.5-5.78,5.94-11.14,8.03-17.12l-4.04-5.74c-3.11,8.65-7.15,17.77-9.26,26.73-.63,2.68-1.26,4.79-.16,7.54ZM152,316.56c7.93-2.79,10.09-14.93,0-15.71,3.75,4.72,1.7,10.61,0,15.71ZM145.57,301.27c-6.11.39-14.44,4.95-20.66,6.2-2.37,2.63-.22,6.54,3.27,6.61,6.09.12,15.47-4.66,21.79-5.58l.7-.76c-.56-3.17-1.09-6.73-5.09-6.47ZM379.4,332.57c3.28-3.83,6.77-7.64,9.6-11.82,1.78-2.62,6.9-10.87,6.87-13.61-.04-3.33-3.02-3.48-5.04-5.42-1.57,5.9-11.43,15.07-11.43,20.85v10ZM378.82,355.42l25.7-40.28c-2.55-2.38-3.69-1.61-5.69.59-2.43,2.68-20.01,27.9-20.01,29.7v10ZM110.43,338.71c5.93,2.83,8.65-5.74,11.39-9.75,1.65-2.42,3.57-4.83,5.6-6.96-2.98-2-5.77-4.02-7.71-7.14l-9.75,21.15.47,2.7ZM89.72,318.29c-2.88.08-5.82,1.98-8.38,3.32-11.95,6.24-23.43,15.37-27.61,28.67,3.8-2.54,6.57-7.04,9.68-10.02,8.26-7.89,18.35-13.84,26.31-21.97ZM92.01,351.42c6.47-5.89,15.65-10.09,5.34-18.24-5.9,3.44-3.57,12.49-5.34,18.24ZM91.43,369.13l21.71-21.42c-2.54-2.06-6.29-.58-8.76.94-1.52.94-12.95,11.3-12.95,12.19v8.28Z"/><path d="M440.53,166.88l-16.54,73.46c-2.96-.26-6.97-1.58-9.86-1.36-2.6.2-16.19,4.01-17.89,5.59-2.58,2.41-3.38,7.89-1.41,10.86-6.87,1.55-9.96,7.03-6.86,13.72l-58.85-11.43,23.43-107.98,87.99,17.15ZM397.5,186.35c-10.43,13.96-18.62,29.49-27.81,44.19.14.64,6.14,3.73,6.87,1.77l25.98-41.46c1.44-1.68-4.16-4.72-5.04-4.5ZM364.71,223.26c2.66,2.2,6.36-1.52,5.45-4.55l-10.75-13.27c.01-1.05,16.01-7.67,18.28-10.28,1.8-2.06.69-5.94-1.56-6.5-1.5-.38-22.85,12.13-25.8,14.01l.57,3.26,13.81,17.32ZM395.14,229.39c.59.86,1.28,2.37,2.55,1.82,2.94-2.29,22.76-12.39,23.35-14.46.27-.96-.05-1.87-.58-2.66-3.1-2.6-12.05-18.96-14.72-19.54-1.82-.39-4.49,2.83-3.93,5.03.66,2.59,10.24,13.72,10.15,15.01l-17.13,10.27c-.77.86-.73,2.4-.61,3.46s.74.8.93,1.07Z" style="fill:#bebebe;"/><path d="M283.9,214.21h-2.69s-1.17-3.58-1.17-3.58l-1.76-.34c-.18,2.89,1.61,6.94-2.73,7.33-3.55.32-2.48-6.1-3.84-6.17-3,.75-.87,6.25-4,6.85-6,1.13-3.51-5.97-4.86-6.86-2.72-1.77-2.46,5.53-4.37,6.19-4.89,1.68-5-3.2-4.77-6.76-3.18-.73-2.77,4.06-4.54,4.87-10.55-.48-3.51-13.34-9.76-18.27-3.93-3.1-13.37-2.84-18.39-3.89-6.66-1.4-15.96-4.85-14.69-13.24.68-4.48,4.98-4.15,6.23-7.48,1.19-3.17.32-6.88.66-10.2,1.35-13.3,15.31-31.3,25.06-40.07,3.13-2.81,15.17-12.05,18.72-12.73,5.5-1.06,18.38,6.01,22.7,9.61,9.96,8.33,10.44,15.37,13.83,26.74.64,2.17,3.02,4.33,4.1,6.75,3.78,8.44-.34,12.01-1.05,19.92-.41,4.57,1.49,17.1-2.08,19.64-2.79,1.98-6.76.19-8.9,4.24-2.72,5.16-.2,12.18-1.69,17.45ZM238.7,151.59c-23.85,3.49-15.59,40.86,9.09,30.8,8.1-3.3,13.21-14.25,12.2-22.68-.83-6.9-15.94-8.9-21.29-8.12ZM283.83,152.73c-2.63.42-9.63,3.46-10.45,6.11-1.47,4.75,2.26,7.23,4.05,10.86,1.58,3.19,2.02,6.33,4.36,9.35,3.93,5.07,8.88,4.97,10.72-1.65.86-3.09,2.18-15.8,1.71-18.78-.8-5.12-5.86-6.62-10.4-5.9ZM271.4,193.15c.47,5.44,7.68,9.64,8.03,1.97.14-3.04-3.15-18.61-4.89-20.82-1.44-1.83-3.65-1.41-5.4-.27-2.9,1.88-8.59,15.89-8.64,19.41-.09,6.37,4.4,7.1,8.29,2.53.83-.97.88-3.06,2.6-2.82Z" style="fill:#fff;"/><path d="M301.69,57.75c.13,1.07-1.13.4-1.73.3-5.13-.79-10.17-2.6-15.29-3.57-45.94-8.72-94.39-3.98-138.26,11.68-22.86,8.16-45.45,19.67-63.84,35.58l-9.4-27.74c.08-1.69,4.31-4.14,5.73-5.07,12.92-8.44,31.6-15.83,46.37-20.48,57.09-18.01,122.34-18.15,176.41,9.3Z" style="fill:#bebebe;"/><path d="M243.98,229.15c.25-1.32-1.28-1.63-1.6-2.69-1.35-4.48,4.06-5.8,5.65-3.22.86,1.4.78,7.38,1.96,7.62,3.57-1.01,1.61-7.35,5.7-6.89,3.46.39,2.58,3.75,3.46,6.32.26.75,0,1.37,1.13,1.16,2.42-.39,2.26-7.05,5.69-7.21.75-.04,2.23.47,2.51,1.27.75,2.11-1.41,4.4.36,5.91,3.16-2.32,2.13-8.44,7.13-7.4.43,1.45.02,2.93.05,4.26.02.84-.49,1.67.82,1.43,2.35-2.6,1.46-6.86,5.43-7.99-.1,3.86-1.63,7.44-2.21,11.21-.48,3.15-.45,12.31-2.33,14.24-3.28,3.37-17.79,2.74-22.33,1.71-6.35-1.44-32.84-15.55-36.84-20.3-6.23-7.4-2.85-19.25-5.99-28,.44-.34,9.94,2.81,10.6,3.39,1.65,1.43,1.82,8.81,2.7,11.59,2.36,7.47,10.56,12.88,18.12,13.58Z" style="fill:#fff;"/><path d="M258.27,91.46c-4.13,3.94-9.28,6.84-13.72,10.56-28.87,24.13-56.17,71.12-53.15,109.73,1.76,22.48,24.03,45.33,43.3,54.98,1.16.58,1.44.75-.1.68-24-6.86-46.67-29.98-48.35-55.65-2.52-38.43,26.19-89.33,56.01-112.59,4.8-3.75,9.91-6.66,16.01-7.7Z" style="fill:#bebebe;"/><path d="M306.26,287.43l2.31,27.11v27.48s-2.59,32.26-2.59,32.26c-.48-3.85-1.15-7.84-1.42-11.72-1.77-24.68.2-49.55.56-74.28l1.14-.84Z" style="fill:#bebebe;"/><path d="M378.82,355.42v-10c0-1.79,17.58-27.01,20.01-29.7,2-2.2,3.14-2.97,5.69-.59l-25.7,40.28Z" style="fill:#fff;"/><path d="M141.57,282.4c4.2-.59,5.71,5.1,3.2,6.66l-26.66,10.29c-2.75-1.67-2.78-4.96-.02-6.69l23.49-10.26Z" style="fill:#fff;"/><path d="M379.4,332.57v-10c0-5.78,9.86-14.95,11.43-20.85,2.02,1.94,5,2.09,5.04,5.42.03,2.74-5.09,10.99-6.87,13.61-2.84,4.18-6.32,7.99-9.6,11.82Z" style="fill:#fff;"/><path d="M145.57,301.27c4.01-.26,4.54,3.3,5.09,6.47l-.7.76c-6.32.91-15.7,5.7-21.79,5.58-3.49-.07-5.64-3.97-3.27-6.61,6.22-1.25,14.55-5.81,20.66-6.2Z" style="fill:#fff;"/><path d="M433.52,268.15c2.01,2.08-2.04,9.07-4.03,8.9-1.39-.12-4.47-2.88-6.11-3.62-2.32-1.06-10.42-2.87-10.86-5.14-.61-3.18.39-6.92,4.22-6.54,1.24.12,16.14,5.76,16.77,6.4Z" style="fill:#fff;"/><path d="M111.5,285.07c-3.21-5.25.73-6.59,4.55-9.3,2.23-1.59,12.98-8.74,14.8-9.23,3.45-.94,7.42,2.87,3.06,6.52-1.91,1.6-18.72,11.52-20.63,11.97-.54.13-1.31.33-1.78.05Z" style="fill:#fff;"/><path d="M110.43,338.71l-.47-2.7,9.75-21.15c1.94,3.11,4.73,5.14,7.71,7.14-2.03,2.13-3.94,4.54-5.6,6.96-2.74,4.02-5.47,12.58-11.39,9.75Z" style="fill:#fff;"/><path d="M232.56,285.71c-20.59-2.52-38.96-13.93-51.42-30.27l27.61,18.38,23.81,11.89Z" style="fill:#bebebe;"/><path d="M89.72,318.29c-7.96,8.12-18.04,14.08-26.31,21.97-3.12,2.98-5.89,7.49-9.68,10.02,4.17-13.3,15.65-22.43,27.61-28.67,2.57-1.34,5.5-3.25,8.38-3.32Z" style="fill:#bebebe;"/><path d="M410.62,277.76l16.22,7.07c2.28,1.85-.19,8.09-2.62,8.33-2.75-.38-4.87-2.8-7.31-4.11-5.78-3.1-12.5-3.28-6.29-11.28Z" style="fill:#fff;"/><path d="M104.01,332.56c-1.1-2.75-.47-4.86.16-7.54,2.11-8.96,6.15-18.08,9.26-26.73l4.04,5.74c-2.09,5.97-5.53,11.34-8.03,17.12-1.28,2.96-2.12,7.44-3.61,10.11-.45.8-.71,1.52-1.83,1.31Z" style="fill:#fff;"/><path d="M91.43,369.13v-8.28c0-.89,11.43-11.25,12.95-12.19,2.47-1.52,6.22-3,8.76-.94l-21.71,21.42Z" style="fill:#fff;"/><path d="M98.86,322.28c-.01-2.14-.1-4.27.15-6.41,1.15-9.83,4.42-21.15,6.98-30.72l4.05,4.6c-3.83,8.75-4.77,18.97-8.31,27.69-.65,1.6-1.34,3.85-2.86,4.84Z" style="fill:#fff;"/><path d="M420.37,247.54c2.07-.62,15.1,2.89,15.9,4.45,1.13,2.65-2.51,4.48-4.1,6.23-2.19-1.92-12.14-3.19-13.07-5.07-.74-1.5-.64-5.04,1.27-5.61Z" style="fill:#fff;"/><path d="M419.39,299.43c-4.49,3.94-10.97,12.75-16.51,5.3-.32-1.23,5.13-8.77,6.63-9.21,3-.89,6.59,4.11,9.87,3.91Z" style="fill:#fff;"/><path d="M92.01,351.42c1.77-5.75-.56-14.8,5.34-18.24,10.3,8.15,1.13,12.35-5.34,18.24Z" style="fill:#fff;"/><path d="M406.25,277.15c-.92,3.91-2.36,5.64-6.57,5.76-2.76.07-13.89-1.91-9.63-6.25,5.49-.05,10.82-.85,16.2.49Z" style="fill:#fff;"/><path d="M255.99,282.28l29.13-18.85c.25,1.07-.6,1.36-1.14,2-7.22,8.6-16.5,15.45-27.99,16.85Z" style="fill:#bebebe;"/><path d="M414.82,246.29c.48,6.28-.6,7.12-6.57,6.85-1.81-.08-9.62-.53-7.2-3.73,1.55-2.05,10.94-2.89,13.77-3.12Z" style="fill:#fff;"/><path d="M409.68,261.72l-1.85,5.57c-1.86,2.2-12.31-1.73-14.15-4.15,4.99-1.96,10.71-2.4,16-1.42Z" style="fill:#fff;"/><path d="M152,316.56c1.7-5.11,3.75-10.99,0-15.71,10.09.78,7.93,12.92,0,15.71Z" style="fill:#fff;"/><path d="M147.99,276c-5.85-1.98-8.91-3.52-9.13-10.28,5.36.14,10.12,4.7,9.13,10.28Z" style="fill:#fff;"/><path d="M149.14,282.29c5.35-.29,8.19,6.6,4.19,10.23l-4.1-2c1.11-2.87-.06-5.35-.09-8.23Z" style="fill:#fff;"/><path d="M160,295.42c0-2.68,1.26-5.16,1.5-7.8.09-1-1.29-3.95.5-3.63,5.73,1.02,4.19,12.55-2,11.43Z" style="fill:#fff;"/><path d="M402.24,291.45c.32,2.07-1.97,5.78-4.18,5.57-2.69-.25-5.95-6.75-3.54-7.16l7.73,1.59Z" style="fill:#fff;"/><path d="M397.5,186.35c.87-.22,6.48,2.82,5.04,4.5l-25.98,41.46c-.73,1.97-6.73-1.12-6.87-1.77,9.2-14.7,17.38-30.23,27.81-44.19Z"/><path d="M364.71,223.26l-13.81-17.32-.57-3.26c2.95-1.89,24.3-14.39,25.8-14.01,2.24.56,3.35,4.44,1.56,6.5-2.27,2.61-18.27,9.23-18.28,10.28l10.75,13.27c.9,3.04-2.79,6.75-5.45,4.55Z"/><path d="M395.14,229.39c-.19-.28-.8-.04-.93-1.07s-.17-2.6.61-3.46l17.13-10.27c.09-1.29-9.49-12.42-10.15-15.01-.56-2.2,2.11-5.42,3.93-5.03,2.67.57,11.63,16.94,14.72,19.54.53.79.85,1.7.58,2.66-.59,2.07-20.41,12.17-23.35,14.46-1.26.55-1.95-.95-2.55-1.82Z"/><path d="M238.7,151.59c5.35-.78,20.45,1.22,21.29,8.12,1.02,8.43-4.1,19.38-12.2,22.68-24.68,10.05-32.94-27.31-9.09-30.8Z"/><path d="M283.83,152.73c4.54-.72,9.6.78,10.4,5.9.47,2.99-.86,15.7-1.71,18.78-1.84,6.62-6.79,6.72-10.72,1.65-2.34-3.02-2.79-6.16-4.36-9.35-1.79-3.63-5.52-6.12-4.05-10.86.82-2.66,7.82-5.7,10.45-6.11Z"/><path d="M271.4,193.15c-1.72-.24-1.77,1.85-2.6,2.82-3.89,4.57-8.38,3.84-8.29-2.53.05-3.52,5.74-17.52,8.64-19.41,1.75-1.14,3.96-1.55,5.4.27,1.74,2.21,5.03,17.78,4.89,20.82-.36,7.67-7.56,3.47-8.03-1.97Z"/></svg>